<?xml version="1.0" encoding="UTF-8" standalone="no"?>
<!-- Created with Inkscape (http://www.inkscape.org/) -->

<svg
   width="27.280045mm"
   height="20.637499mm"
   viewBox="0 0 27.280045 20.637499"
   version="1.1"
   id="svg1"
   xmlns:inkscape="http://www.inkscape.org/namespaces/inkscape"
   xmlns:sodipodi="http://sodipodi.sourceforge.net/DTD/sodipodi-0.dtd"
   xmlns="http://www.w3.org/2000/svg"
   xmlns:svg="http://www.w3.org/2000/svg">
  <sodipodi:namedview
     id="namedview1"
     pagecolor="#ffffff"
     bordercolor="#000000"
     borderopacity="0.25"
     inkscape:showpageshadow="2"
     inkscape:pageopacity="0.0"
     inkscape:pagecheckerboard="0"
     inkscape:deskcolor="#d1d1d1"
     inkscape:document-units="mm" />
  <defs
     id="defs1" />
  <g
     inkscape:label="Layer 1"
     inkscape:groupmode="layer"
     id="layer1"
     transform="translate(-74.776476,7.8193567)">
    <path
       class="a259c8a2-a3d1-4199-8102-81eb076648c1"
       d="m 97.638669,2.437594 c 0.247361,1.173972 0.247361,1.297553 0.247361,1.451991 0,2.008314 -2.255649,3.12039 -5.221142,3.12039 -6.704594,0 -12.574386,-3.923538 -12.574386,-6.51875896 a 2.6410152,2.6410152 0 0 1 0.216233,-1.05037503 c -2.409909,0.123584 -5.53026,0.55597903 -5.53026,3.30563999 0,4.510569 10.689778,10.071661 19.154894,10.071661 6.488061,0 8.125151,-2.934827 8.125151,-5.25196 0,-1.823077 -1.57547,-3.892619 -4.417851,-5.128588 M 92.973591,4.0751 c 1.792166,0 4.387056,-0.37089 4.387056,-2.502572 A 2.0264437,2.0264437 0 0 0 97.316217,1.082057 L 96.248798,-3.55592 c -0.247505,-1.019506 -0.463627,-1.483048 -2.255504,-2.379059 -1.390468,-0.710422 -4.418018,-1.884378 -5.314067,-1.884378 -0.834141,0 -1.081087,1.081087 -2.069896,1.081087 -0.957582,0 -1.668216,-0.803077 -2.564154,-0.803077 -0.864854,0 -1.421262,0.586846 -1.853723,1.791878 0,0 -1.205027,3.398361 -1.35948,3.892404 a 0.89587916,0.89587916 0 0 0 -0.03183,0.278376 c 0,1.32076901 5.201639,5.653773 12.173431,5.653773"
       id="path1"
       style="fill:#ed0000;stroke-width:0.264583" />
    <path
       d="m 97.638669,2.437594 c 0.247361,1.173972 0.247361,1.297553 0.247361,1.451991 0,2.008314 -2.255649,3.12039 -5.221142,3.12039 -6.704594,0 -12.574386,-3.923538 -12.574386,-6.51875896 a 2.6410152,2.6410152 0 0 1 0.216233,-1.05037503 L 80.831989,-1.857054 a 0.89587916,0.89587916 0 0 0 -0.03183,0.278376 c 0,1.32076801 5.201639,5.653773 12.173431,5.653773 1.792166,0 4.387056,-0.370891 4.387056,-2.502572 a 2.0264437,2.0264437 0 0 0 -0.04443,-0.490472 l 0.322461,1.355543 z"
       id="path2"
       style="stroke-width:0.264583"
       inkscape:export-filename="path2.svg"
       inkscape:export-xdpi="96"
       inkscape:export-ydpi="96" />
  </g>
</svg>
